 http://www.imdb.com/title/tt1371111/

Source: Cloud Atlas 2012 720p BluRay x264 DTS-PTpOWeR Thanks a lot!

Subs: Bulgarian, Dutch, English, Servian.

Sample and Screens included.

General
Complete name                            : Cloud Atlas-720p MP4 AAC x264 BRRip 2012-CC.mp4
Format                                   : MPEG-4
Format profile                           : Base Media
Codec ID                                 : isom
File size                                : 3.53 GiB
Duration                                 : 2h 52mn
Overall bit rate mode                    : Variable
Overall bit rate                         : 2 929 Kbps
Encoded date                             : UTC 2013-03-17 06:00:56

Video
ID                                       : 1
Format                                   : AVC
Format/Info                              : Advanced Video Codec
Format profile                           : High@L4.1
Format settings, CABAC                   : Yes
Format settings, ReFrames                : 5 frames
Codec ID                                 : avc1
Codec ID/Info                            : Advanced Video Coding
Duration                                 : 2h 52mn
Bit rate                                 : 2 564 Kbps
Maximum bit rate                         : 14.1 Mbps
Width                                    : 1 280 pixels
Height                                   : 544 pixels
Display aspect ratio                     : 2.35:1
Frame rate mode                          : Variable
Frame rate                               : 23.976 fps
Minimum frame rate                       : 11.905 fps
Maximum frame rate                       : 24.390 fps
Color space                              : YUV
Chroma subsampling                       : 4:2:0
Bit depth                                : 8 bits
Scan type                                : Progressive
Bits/(Pixel*Frame)                       : 0.154
Stream size                              : 3.06 GiB (87%)
Writing library                          : x264 core 112

Audio
ID                                       : 2
Format                                   : AAC
Format/Info                              : Advanced Audio Codec
Format profile                           : LC
Codec ID                                 : 40
Duration                                 : 2h 52mn
Bit rate mode                            : Variable
Bit rate                                 : 384 Kbps
Maximum bit rate                         : 635 Kbps
Channel(s)                               : 6 channels
Channel positions                        : Front: L C R, Side: L R, LFE
Sampling rate                            : 48.0 KHz
Compression mode                         : Lossy
Delay relative to video                  : 125ms
Stream size                              : 473 MiB (13%)
Language                                 : English

Enjoy...

Coming soon: Army of Shadows, Tetro, The Insider and more.
